<?xml version="1.0" encoding="utf-8"?>
<!-- Generator: Adobe Illustrator 25.2.0, SVG Export Plug-In . SVG Version: 6.00 Build 0)  -->
<svg version="1.1" id="Logo_Unit_1" xmlns="http://www.w3.org/2000/svg" xmlns:xlink="http://www.w3.org/1999/xlink" x="0px"
	 y="0px" viewBox="0 0 1920 300" style="enable-background:new 0 0 1920 300;" xml:space="preserve">
<style type="text/css">
	.st0{display:none;fill:#012970;}
	.st1{font-family:'Nunito-Regular';}
	.st2{font-size:322.2918px;}
	.st3{fill:#012970;}
</style>
<text transform="matrix(1 0 0 1 627.3212 278.9196)" class="st0 st1 st2">Animatemate</text>
<g>
	<g>
		<path d="M346.51,89.12c0,47.63,0,95.26,0,142.9c-0.15,0.29-0.36,0.56-0.45,0.86c-2.15,6.96-7.05,10.68-14.26,10.8
			c-1.58,0.02-3.16,0-4.69,0c-0.16,0.46-0.29,0.68-0.32,0.91c-1.02,9.12-4.95,12.65-14.12,12.65c-53.4,0-106.8,0-160.2,0
			c-0.92,0-1.85,0.04-2.76-0.03c-2.02-0.17-3.26-1.29-3.46-3.32c-0.21-2.16,0.9-3.54,2.96-4.03c0.96-0.23,2-0.16,3-0.16
			c53.32-0.01,106.63-0.01,159.95-0.01c0.84,0,1.68,0.03,2.51-0.01c3.36-0.15,4.96-2.39,4.13-5.83c-67.43,0-134.86,0-202.28,0
			c-0.54,3.88,1.01,5.8,4.66,5.84c4.44,0.05,8.89-0.04,13.33,0.04c2.48,0.05,4.14,1.74,4.09,3.87c-0.06,2.08-1.64,3.6-4.02,3.62
			c-4.95,0.05-9.89,0.11-14.84-0.04c-5.22-0.15-9.75-4.2-10.73-9.34c-0.25-1.3-0.36-2.62-0.57-4.17c-1.82,0-3.56,0.02-5.31,0
			c-4.97-0.07-8.93-2.16-11.68-6.26c-1.09-1.63-1.71-3.58-2.54-5.39c0-47.63,0-95.26,0-142.9c0.14-0.2,0.34-0.38,0.41-0.6
			c2.42-7.41,7.21-10.94,14.91-10.97c1.71-0.01,3.43,0,5.24,0c0-1.36,0-2.28,0-3.19c0.04-6.86,3.69-10.5,10.6-10.51
			c6.04-0.02,12.07-0.04,18.11,0.01c5.99,0.05,9.85,3.92,10,9.93c0.03,1.22,0,2.43,0,3.77c1.64,0,2.91-0.15,4.13,0.03
			c2.56,0.37,4.07-0.69,5.47-2.81c5.54-8.38,11.25-16.66,16.95-24.94c3.16-4.59,7.55-7.02,13.17-7.05
			c5.45-0.03,10.9-0.13,16.34,0.08c1.29,0.05,2.99,0.9,3.71,1.93c1.7,2.47-0.4,5.45-3.79,5.5c-5.11,0.08-10.23,0.11-15.34-0.01
			c-3.61-0.08-6.25,1.31-8.24,4.3c-3.34,5.02-6.78,9.97-10.18,14.96c-1.73,2.53-3.45,5.07-5.33,7.83c35.22,0,70.07,0,105.27,0
			c-5.33-7.81-10.49-15.32-15.58-22.87c-1.95-2.89-4.52-4.24-8.04-4.21c-8.63,0.09-17.27,0.04-25.9,0.02
			c-3.01-0.01-4.65-1.36-4.7-3.72c-0.06-2.48,1.58-3.81,4.78-3.82c8.47-0.01,16.93,0.1,25.4-0.04c6.54-0.11,11.4,2.55,15,7.94
			c5.54,8.29,11.26,16.45,16.81,24.74c1.04,1.56,2.1,2.19,4.03,2.18c16.51-0.09,33.03-0.07,49.54-0.04
			c7.03,0.01,12.13,3.81,14.3,10.48C346.11,88.41,346.33,88.76,346.51,89.12z M96.46,118.8c0,1.02,0,1.76,0,2.51
			c0,35.55,0,71.1,0,106.65c0,5.74,2.47,8.17,8.31,8.17c75.29,0,150.57,0,225.86,0c5.95,0,8.33-2.41,8.33-8.41
			c0-35.38,0-70.76,0-106.15c0-0.89,0-1.79,0-2.73c-22.63,0-44.95,0-67.64,0c0.73,1.07,1.27,1.88,1.83,2.66
			c6.57,9.16,10.66,19.3,12.18,30.48c0.35,2.58-0.74,4.32-2.94,4.76c-2.16,0.43-3.85-0.85-4.42-3.37c-0.11-0.49-0.22-0.98-0.3-1.48
			c-4.33-27.63-27.23-48.94-54.94-51.13c-39.25-3.1-71.03,31.1-64.98,69.93c4.24,27.24,25.58,47.83,53.93,50.98
			c27.38,3.04,52.05-12.83,61.85-36.75c2.19-5.36,3.14-11.24,4.53-16.91c0.6-2.44,2.09-3.8,4.36-3.5c2.08,0.28,3.34,1.99,3.16,4.38
			c-0.06,0.83-0.25,1.66-0.37,2.49c-5.17,36.96-40.66,63.25-77.62,57.49c-51.03-7.95-75.26-66.71-44.65-108.28
			c0.37-0.51,0.69-1.06,1.18-1.81C141.46,118.8,119.12,118.8,96.46,118.8z M96.5,110.98c0.65,0.07,0.98,0.14,1.3,0.14
			c24.06,0.01,48.12,0.02,72.19-0.04c0.96,0,2.1-0.56,2.86-1.21c26.42-22.46,62.9-22.5,89.61-0.14c0.97,0.82,2.52,1.34,3.8,1.34
			c23.31,0.08,46.62,0.06,69.92,0.06c0.88,0,1.76,0,2.55,0c0.13-0.57,0.2-0.73,0.2-0.89c0.01-5.37,0.02-10.73,0.02-16.1
			c0-6.83-2.2-9.05-8.99-9.05c-74.87,0-149.74,0-224.61,0c-0.92,0-1.85-0.04-2.76,0.06c-3.26,0.35-5.96,2.81-6.05,6.05
			C96.38,97.73,96.5,104.26,96.5,110.98z M140.63,77.48c0-1.48,0.29-2.82-0.09-3.92c-0.3-0.87-1.42-2.05-2.21-2.07
			c-6.36-0.17-12.73-0.16-19.09,0c-0.75,0.02-1.85,1.23-2.11,2.09c-0.37,1.18-0.09,2.56-0.09,3.9
			C125.03,77.48,132.64,77.48,140.63,77.48z"/>
		<path d="M166.32,161.32c0-28.43,23.15-51.56,51.52-51.47c28.3,0.09,51.26,23.13,51.27,51.48c0.01,28.41-23.16,51.56-51.53,51.48
			C189.29,212.73,166.31,189.65,166.32,161.32z M173.86,161.27c-0.02,24.17,19.55,43.88,43.67,43.98c24.21,0.1,44-19.63,44.02-43.89
			c0.02-24.28-19.71-44.03-43.93-43.98C193.5,117.44,173.88,137.11,173.86,161.27z"/>
		<path d="M127.15,219.37c-0.01,2.7-1.43,4.45-3.67,4.53c-2.32,0.07-3.88-1.77-3.87-4.57c0-2.76,1.36-4.41,3.67-4.47
			C125.7,214.8,127.16,216.49,127.15,219.37z"/>
		<path d="M308.27,219.29c0.01-2.74,1.39-4.4,3.71-4.43c2.43-0.04,3.86,1.65,3.84,4.55c-0.02,2.68-1.47,4.45-3.7,4.49
			C309.8,223.94,308.26,222.1,308.27,219.29z"/>
		<path d="M311.08,101.8c-1.92,0-3.85,0.08-5.77-0.02c-2.3-0.11-3.65-1.51-3.69-3.61c-0.04-2.07,1.28-3.72,3.51-3.81
			c4.01-0.15,8.03-0.15,12.05-0.01c2.17,0.07,3.64,1.82,3.62,3.77c-0.02,2.06-1.6,3.59-3.95,3.68c-1.92,0.07-3.85,0.02-5.77,0.02
			C311.08,101.81,311.08,101.8,311.08,101.8z"/>
		<path d="M185.42,159.21c0.73-16.09,14.43-29.73,30.82-30.23c1.38-0.04,3.16,0.37,4.07,1.26c0.79,0.78,1.04,2.63,0.76,3.84
			c-0.42,1.83-2.12,2.31-3.95,2.4c-9.1,0.46-16.32,4.44-20.76,12.42c-1.81,3.25-2.32,7.22-3.37,10.88
			c-0.25,0.87-0.14,1.85-0.42,2.71c-0.59,1.82-1.97,2.73-3.84,2.54c-1.85-0.19-3.06-1.29-3.3-3.21
			C185.34,161.08,185.42,160.32,185.42,159.21z"/>
	</g>
	<g>
		<path class="st3" d="M460.07,232.72c-3.69,0-6.23-1.23-7.61-3.69c-1.38-2.46-1.23-5.54,0.46-9.23l63.45-144.44
			c2.46-5.69,6.23-8.54,11.31-8.54c2.31,0,4.42,0.66,6.35,1.96c1.92,1.31,3.5,3.5,4.73,6.58l63.68,144.44
			c1.69,3.69,1.92,6.77,0.69,9.23c-1.23,2.46-3.69,3.69-7.38,3.69c-2.77,0-5-0.73-6.69-2.19c-1.69-1.46-3.08-3.58-4.15-6.35
			l-15-34.61h-84.68l-14.77,34.61C467.99,229.87,464.53,232.72,460.07,232.72z M527.44,90.59l-35.3,83.07h71.07l-35.3-83.07H527.44z
			"/>
		<path class="st3" d="M638.42,232.72c-6.15,0-9.23-3.23-9.23-9.69v-96.22c0-6.31,3-9.46,9-9.46c6.15,0,9.23,3.15,9.23,9.46v11.31
			c3.69-7.07,8.92-12.38,15.69-15.92c6.77-3.54,14.38-5.31,22.84-5.31c26.61,0,39.92,14.77,39.92,44.3v61.84
			c0,6.46-3.08,9.69-9.23,9.69c-6.31,0-9.46-3.23-9.46-9.69v-60.68c0-10.46-2.04-18.11-6.11-22.96c-4.08-4.85-10.58-7.27-19.5-7.27
			c-10.31,0-18.5,3.19-24.57,9.58c-6.08,6.38-9.11,14.88-9.11,25.5v55.84C647.88,229.49,644.73,232.72,638.42,232.72z"/>
		<path class="st3" d="M769.48,91.97c-8.15,0-12.23-3.84-12.23-11.54c0-7.54,4.07-11.31,12.23-11.31c8.15,0,12.23,3.77,12.23,11.31
			C781.71,88.13,777.63,91.97,769.48,91.97z M769.48,232.26c-6.15,0-9.23-3.38-9.23-10.15v-94.37c0-6.61,3.08-9.92,9.23-9.92
			c6.31,0,9.46,3.31,9.46,9.92v94.37C778.94,228.88,775.78,232.26,769.48,232.26z"/>
		<path class="st3" d="M823.47,232.72c-6.15,0-9.23-3.23-9.23-9.69v-96.22c0-6.31,3-9.46,9-9.46c6.15,0,9.23,3.15,9.23,9.46v11.08
			c3.38-6.77,8.08-11.96,14.08-15.57c6-3.61,13-5.42,21-5.42c17.54,0,28.76,7.61,33.69,22.84c3.38-7.07,8.38-12.65,15-16.73
			c6.61-4.07,14.23-6.11,22.84-6.11c24.92,0,37.38,14.77,37.38,44.3v61.84c0,6.46-3.15,9.69-9.46,9.69c-6.15,0-9.23-3.23-9.23-9.69
			v-60.91c0-10.3-1.81-17.88-5.42-22.73c-3.62-4.85-9.58-7.27-17.88-7.27c-9.08,0-16.31,3.23-21.69,9.69
			c-5.39,6.46-8.08,15.08-8.08,25.84v55.38c0,6.46-3.15,9.69-9.46,9.69c-6.15,0-9.23-3.23-9.23-9.69v-60.91
			c0-10.3-1.81-17.88-5.42-22.73c-3.62-4.85-9.58-7.27-17.88-7.27c-9.23,0-16.5,3.23-21.8,9.69c-5.31,6.46-7.96,15.08-7.96,25.84
			v55.38C832.93,229.49,829.77,232.72,823.47,232.72z"/>
		<path class="st3" d="M1046.59,233.18c-7.69,0-14.58-1.5-20.65-4.5c-6.08-3-10.88-7.11-14.42-12.34
			c-3.54-5.23-5.31-11.08-5.31-17.54c0-8.15,2.11-14.61,6.35-19.38c4.23-4.77,11.23-8.19,21-10.27c9.77-2.08,23.11-3.12,40.03-3.12
			h7.38v-7.15c0-9.54-1.96-16.42-5.88-20.65c-3.92-4.23-10.19-6.35-18.8-6.35c-5.39,0-10.81,0.69-16.27,2.08
			c-5.46,1.39-11.11,3.62-16.96,6.69c-2.62,1.38-4.81,1.65-6.58,0.81c-1.77-0.84-3-2.23-3.69-4.15c-0.69-1.92-0.69-3.92,0-6
			c0.69-2.08,2.19-3.65,4.5-4.73c6.61-3.38,13.27-5.84,19.96-7.38c6.69-1.54,13.04-2.31,19.04-2.31c14.46,0,25.19,3.54,32.19,10.61
			c7,7.08,10.5,18.08,10.5,33v62.53c0,6.46-2.85,9.69-8.54,9.69c-6,0-9-3.23-9-9.69v-11.31c-2.92,6.62-7.42,11.85-13.5,15.69
			C1061.85,231.26,1054.74,233.18,1046.59,233.18z M1049.59,219.11c9.23,0,16.76-3.19,22.61-9.58c5.84-6.38,8.77-14.5,8.77-24.34
			v-6.92h-7.15c-12.46,0-22.27,0.58-29.42,1.73c-7.15,1.15-12.15,3.15-15,6c-2.85,2.85-4.27,6.73-4.27,11.65
			c0,6.31,2.19,11.46,6.58,15.46C1036.09,217.11,1042.05,219.11,1049.59,219.11z"/>
		<path class="st3" d="M1178.57,233.18c-13.23,0-23.15-3.5-29.76-10.5c-6.62-7-9.92-17.11-9.92-30.34V133.5h-15.46
			c-5.39,0-8.08-2.46-8.08-7.38c0-4.77,2.69-7.15,8.08-7.15h15.46V92.43c0-6.31,3.15-9.46,9.46-9.46c6.15,0,9.23,3.15,9.23,9.46
			v26.53h29.07c5.38,0,8.08,2.39,8.08,7.15c0,4.92-2.69,7.38-8.08,7.38h-29.07v56.99c0,8.77,1.85,15.42,5.54,19.96
			c3.69,4.54,9.69,6.81,18,6.81c2.92,0,5.38-0.31,7.38-0.92c2-0.61,3.77-0.92,5.31-0.92c1.38-0.15,2.54,0.31,3.46,1.38
			c0.92,1.08,1.39,2.92,1.39,5.54c0,1.85-0.35,3.54-1.04,5.08c-0.69,1.54-1.88,2.62-3.58,3.23c-1.85,0.61-4.27,1.19-7.27,1.73
			C1183.76,232.91,1181.03,233.18,1178.57,233.18z"/>
		<path class="st3" d="M1263.71,233.18c-17.69,0-31.69-5.19-41.99-15.57c-10.31-10.38-15.46-24.49-15.46-42.34
			c0-11.54,2.31-21.73,6.92-30.57c4.62-8.84,10.96-15.69,19.04-20.54c8.08-4.85,17.42-7.27,28.03-7.27
			c15.23,0,27.15,4.89,35.76,14.65c8.61,9.77,12.92,23.19,12.92,40.26c0,4.77-2.69,7.15-8.08,7.15h-76.37
			c0.61,12.77,4.3,22.5,11.08,29.19c6.77,6.69,16.15,10.04,28.15,10.04c5.08,0,10.23-0.65,15.46-1.96c5.23-1.3,10.3-3.65,15.23-7.04
			c3.54-2.31,6.5-2.77,8.88-1.38c2.38,1.38,3.61,3.5,3.69,6.35c0.08,2.85-1.5,5.35-4.73,7.5c-5.08,3.69-11.11,6.54-18.11,8.54
			C1277.13,232.18,1270.32,233.18,1263.71,233.18z M1260.71,130.73c-10.61,0-19,3.31-25.15,9.92c-6.15,6.62-9.77,15.31-10.85,26.07
			h68.07c-0.46-11.38-3.43-20.23-8.88-26.54C1278.44,133.89,1270.71,130.73,1260.71,130.73z"/>
		<path class="st3" d="M1345.62,232.72c-6.15,0-9.23-3.23-9.23-9.69v-96.22c0-6.31,3-9.46,9-9.46c6.15,0,9.23,3.15,9.23,9.46v11.08
			c3.38-6.77,8.08-11.96,14.08-15.57c6-3.61,13-5.42,21-5.42c17.54,0,28.76,7.61,33.69,22.84c3.38-7.07,8.38-12.65,15-16.73
			c6.61-4.07,14.23-6.11,22.84-6.11c24.92,0,37.38,14.77,37.38,44.3v61.84c0,6.46-3.15,9.69-9.46,9.69c-6.15,0-9.23-3.23-9.23-9.69
			v-60.91c0-10.3-1.81-17.88-5.42-22.73c-3.62-4.85-9.58-7.27-17.88-7.27c-9.08,0-16.31,3.23-21.69,9.69
			c-5.39,6.46-8.08,15.08-8.08,25.84v55.38c0,6.46-3.15,9.69-9.46,9.69c-6.15,0-9.23-3.23-9.23-9.69v-60.91
			c0-10.3-1.81-17.88-5.42-22.73c-3.62-4.85-9.58-7.27-17.88-7.27c-9.23,0-16.5,3.23-21.8,9.69c-5.31,6.46-7.96,15.08-7.96,25.84
			v55.38C1355.08,229.49,1351.93,232.72,1345.62,232.72z"/>
		<path class="st3" d="M1568.74,233.18c-7.69,0-14.58-1.5-20.65-4.5c-6.08-3-10.88-7.11-14.42-12.34
			c-3.54-5.23-5.31-11.08-5.31-17.54c0-8.15,2.11-14.61,6.35-19.38c4.23-4.77,11.23-8.19,21-10.27c9.77-2.08,23.11-3.12,40.03-3.12
			h7.38v-7.15c0-9.54-1.96-16.42-5.88-20.65c-3.92-4.23-10.19-6.35-18.8-6.35c-5.39,0-10.81,0.69-16.27,2.08
			c-5.46,1.39-11.11,3.62-16.96,6.69c-2.62,1.38-4.81,1.65-6.58,0.81c-1.77-0.84-3-2.23-3.69-4.15c-0.69-1.92-0.69-3.92,0-6
			c0.69-2.08,2.19-3.65,4.5-4.73c6.61-3.38,13.27-5.84,19.96-7.38c6.69-1.54,13.04-2.31,19.04-2.31c14.46,0,25.19,3.54,32.19,10.61
			c7,7.08,10.5,18.08,10.5,33v62.53c0,6.46-2.85,9.69-8.54,9.69c-6,0-9-3.23-9-9.69v-11.31c-2.92,6.62-7.42,11.85-13.5,15.69
			C1584,231.26,1576.89,233.18,1568.74,233.18z M1571.74,219.11c9.23,0,16.76-3.19,22.61-9.58c5.84-6.38,8.77-14.5,8.77-24.34v-6.92
			h-7.15c-12.46,0-22.27,0.58-29.42,1.73c-7.15,1.15-12.15,3.15-15,6c-2.85,2.85-4.27,6.73-4.27,11.65c0,6.31,2.19,11.46,6.58,15.46
			C1558.24,217.11,1564.2,219.11,1571.74,219.11z"/>
		<path class="st3" d="M1700.72,233.18c-13.23,0-23.15-3.5-29.76-10.5c-6.62-7-9.92-17.11-9.92-30.34V133.5h-15.46
			c-5.39,0-8.08-2.46-8.08-7.38c0-4.77,2.69-7.15,8.08-7.15h15.46V92.43c0-6.31,3.15-9.46,9.46-9.46c6.15,0,9.23,3.15,9.23,9.46
			v26.53h29.07c5.38,0,8.08,2.39,8.08,7.15c0,4.92-2.69,7.38-8.08,7.38h-29.07v56.99c0,8.77,1.85,15.42,5.54,19.96
			c3.69,4.54,9.69,6.81,18,6.81c2.92,0,5.38-0.31,7.38-0.92c2-0.61,3.77-0.92,5.31-0.92c1.38-0.15,2.54,0.31,3.46,1.38
			c0.92,1.08,1.39,2.92,1.39,5.54c0,1.85-0.35,3.54-1.04,5.08c-0.69,1.54-1.88,2.62-3.58,3.23c-1.85,0.61-4.27,1.19-7.27,1.73
			C1705.91,232.91,1703.18,233.18,1700.72,233.18z"/>
		<path class="st3" d="M1785.86,233.18c-17.69,0-31.69-5.19-41.99-15.57c-10.31-10.38-15.46-24.49-15.46-42.34
			c0-11.54,2.31-21.73,6.92-30.57c4.62-8.84,10.96-15.69,19.04-20.54c8.08-4.85,17.42-7.27,28.03-7.27
			c15.23,0,27.15,4.89,35.76,14.65c8.61,9.77,12.92,23.19,12.92,40.26c0,4.77-2.69,7.15-8.08,7.15h-76.37
			c0.61,12.77,4.3,22.5,11.08,29.19c6.77,6.69,16.15,10.04,28.15,10.04c5.08,0,10.23-0.65,15.46-1.96c5.23-1.3,10.3-3.65,15.23-7.04
			c3.54-2.31,6.5-2.77,8.88-1.38c2.38,1.38,3.61,3.5,3.69,6.35c0.08,2.85-1.5,5.35-4.73,7.5c-5.08,3.69-11.11,6.54-18.11,8.54
			C1799.28,232.18,1792.47,233.18,1785.86,233.18z M1782.86,130.73c-10.61,0-19,3.31-25.15,9.92c-6.15,6.62-9.77,15.31-10.85,26.07
			h68.07c-0.46-11.38-3.43-20.23-8.88-26.54C1800.59,133.89,1792.86,130.73,1782.86,130.73z"/>
	</g>
</g>
</svg>
